{"title":"IMPACT.WRESTLING.2011.12.29.HDTV.XviD.FICEK9","uid":6968942,"size":782320218,"categoryP":"video","categoryS":"tv_shows","magnet":"?xt=urn:btih:baa138e484afe53a8e857c47958984b73ef67ac6&amp;dn=IMPACT.WRESTLING.2011.12.29.HDTV.XviD.FICEK9&amp;tr=udp%3A%2F%2Ftracker.openbittorrent.com%3A80&amp;tr=udp%3A%2F%2Fopen.demonii.com%3A1337&amp;tr=udp%3A%2F%2Ftracker.coppersurfer.tk%3A6969&amp;tr=udp%3A%2F%2Fexodus.desync.com%3A6969","seeders":0,"leechers":0,"uploader":"FICEK9","files":2,"time":1327017998,"description":"Complete name : IMPACT.WRESTLING.2011.12.29.HDTV.XviD.FICEK9.avi\n      Format : AVI\n      Format/Info : Audio Video Interleave\n      File size : 746 MiB\n      Duration : 1h 22mn\n      Overall bit rate : 1 265 Kbps\n      Writing application : MEncoder SVN-r30881(20100311-gcc4.3.3)\n      Writing library : MPlayer\n   Video #0\n      ID : 0\n      Format : MPEG-4 Visual\n      Format profile : Advanced Simple@L5\n      Format settings, BVOP : 2\n      Format settings, QPel : No\n      Format settings, GMC : No warppoints\n      Format settings, Matrix : Default (H.263)\n      Codec ID : XVID\n      Codec ID/Hint : XviD\n      Duration : 1h 22mn\n      Bit rate : 1 132 Kbps\n      Width : 624 pixels\n      Height : 352 pixels\n      Display aspect ratio : 16:9\n      Frame rate : 29.970 fps\n      Color space : YUV\n      Chroma subsampling : 4:2:0\n      Bit depth : 8 bits\n      Scan type : Progressive\n      Compression mode : Lossy\n      Bits/(Pixel*Frame) : 0.172\n      Stream size : 667 MiB (89%)\n      Writing library : XviD 1.2.1 (UTC 2008-12-04)\n   Audio #1\n      ID : 1\n      Format : MPEG Audio\n      Format version : Version 1\n      Format profile : Layer 3\n      Mode : Joint stereo\n      Mode extension : MS Stereo\n      Codec ID : 55\n      Codec ID/Hint : MP3\n      Duration : 1h 22mn\n      Bit rate mode : Variable\n      Bit rate : 120 Kbps\n      Channel(s) : 2 channels\n      Sampling rate : 48.0 KHz\n      Compression mode : Lossy\n      Stream size : 70.6 MiB (9%)\n      Alignment : Aligned on interleaves\n      Interleave, duration : 24 ms (0.72 video frame)\n      Interleave, preload duration : 496 ms","torrent":{"xt":"urn:btih:baa138e484afe53a8e857c47958984b73ef67ac6","amp;dn":"IMPACT.WRESTLING.2011.12.29.HDTV.XviD.FICEK9","amp;tr":["udp%3A%2F%2Ftracker.openbittorrent.com%3A80","udp%3A%2F%2Fopen.demonii.com%3A1337","udp%3A%2F%2Ftracker.coppersurfer.tk%3A6969","udp%3A%2F%2Fexodus.desync.com%3A6969"],"infoHash":"baa138e484afe53a8e857c47958984b73ef67ac6","infoHashBuffer":{"type":"Buffer","data":[186,161,56,228,132,175,229,58,142,133,124,71,149,137,132,183,62,246,122,198]},"announce":[],"urlList":[]}}